<svg width="81" height="80" viewBox="0 0 81 80" fill="none" xmlns="http://www.w3.org/2000/svg">
<rect x="0.5" width="80" height="80" fill="#E6E6EB"/>
<path d="M40.5 21.25C42.0452 21.25 43.5556 21.7082 44.8404 22.5666C46.1252 23.4251 47.1265 24.6452 47.7178 26.0728C48.3091 27.5003 48.4638 29.0712 48.1624 30.5866C47.8609 32.1021 47.1169 33.4942 46.0243 34.5868C44.9317 35.6794 43.5396 36.4234 42.0241 36.7249C40.5087 37.0263 38.9378 36.8716 37.5103 36.2803C36.0827 35.689 34.8626 34.6877 34.0041 33.4029C33.1457 32.1181 32.6875 30.6077 32.6875 29.0625C32.6875 26.9905 33.5106 25.0034 34.9757 23.5382C36.4409 22.0731 38.428 21.25 40.5 21.25ZM40.5 18.125C38.3368 18.125 36.2221 18.7665 34.4235 19.9683C32.6248 21.1701 31.2229 22.8783 30.3951 24.8769C29.5672 26.8755 29.3506 29.0746 29.7727 31.1963C30.1947 33.318 31.2364 35.2668 32.766 36.7965C34.2957 38.3261 36.2445 39.3678 38.3662 39.7898C40.4879 40.2119 42.687 39.9953 44.6856 39.1674C46.6842 38.3396 48.3924 36.9377 49.5942 35.139C50.796 33.3404 51.4375 31.2257 51.4375 29.0625C51.4375 26.1617 50.2852 23.3797 48.234 21.3285C46.1828 19.2773 43.4008 18.125 40.5 18.125ZM56.125 61.875H53V54.0625C53 53.0365 52.7979 52.0206 52.4053 51.0728C52.0127 50.1249 51.4372 49.2637 50.7118 48.5382C49.9863 47.8128 49.1251 47.2373 48.1772 46.8447C47.2294 46.4521 46.2135 46.25 45.1875 46.25H35.8125C33.7405 46.25 31.7534 47.0731 30.2882 48.5382C28.8231 50.0034 28 51.9905 28 54.0625V61.875H24.875V54.0625C24.875 51.1617 26.0273 48.3797 28.0785 46.3285C30.1297 44.2773 32.9117 43.125 35.8125 43.125H45.1875C48.0883 43.125 50.8703 44.2773 52.9215 46.3285C54.9727 48.3797 56.125 51.1617 56.125 54.0625V61.875Z" fill="#595959"/>
</svg>
