<svg width="25" height="25" viewBox="0 0 25 25" fill="none" xmlns="http://www.w3.org/2000/svg">
<path d="M16.1459 12.5007V5.72982C16.1459 5.25104 16.0516 4.77695 15.8684 4.33462C15.6852 3.89228 15.4166 3.49037 15.0781 3.15182C14.7395 2.81328 14.3376 2.54473 13.8953 2.36151C13.4529 2.17829 12.9789 2.08398 12.5001 2.08398C12.0213 2.08398 11.5472 2.17829 11.1049 2.36151C10.6625 2.54473 10.2606 2.81328 9.92209 3.15182C9.58354 3.49037 9.31499 3.89228 9.13177 4.33462C8.94855 4.77695 8.85425 5.25104 8.85425 5.72982V12.5007C8.85425 12.9794 8.94855 13.4535 9.13177 13.8959C9.31499 14.3382 9.58354 14.7401 9.92209 15.0786C10.2606 15.4172 10.6625 15.6857 11.1049 15.869C11.5472 16.0522 12.0213 16.1465 12.5001 16.1465C12.9789 16.1465 13.4529 16.0522 13.8953 15.869C14.3376 15.6857 14.7395 15.4172 15.0781 15.0786C15.4166 14.7401 15.6852 14.3382 15.8684 13.8959C16.0516 13.4535 16.1459 12.9794 16.1459 12.5007Z" stroke="white" stroke-width="2.08333" stroke-linejoin="round"/>
<path d="M4.6875 11.9792C4.6875 16.2937 8.18542 19.7917 12.5 19.7917M12.5 19.7917C13.413 19.7917 14.2896 19.6354 15.1042 19.3474M12.5 19.7917V22.9167M20.3125 11.9792C20.314 13.0545 20.0926 14.1186 19.6625 15.1042M21.875 21.875L3.125 3.125" stroke="white" stroke-width="2.08333" stroke-linecap="round" stroke-linejoin="round"/>
</svg>
