<svg width="23" height="22" viewBox="0 0 23 22" fill="none" xmlns="http://www.w3.org/2000/svg">
<path d="M16.6146 12.8861C16.8909 12.8861 17.1558 12.7763 17.3512 12.581C17.5465 12.3856 17.6562 12.1207 17.6562 11.8444C17.6562 11.5681 17.5465 11.3032 17.3512 11.1078C17.1558 10.9125 16.8909 10.8027 16.6146 10.8027C16.3383 10.8027 16.0734 10.9125 15.878 11.1078C15.6827 11.3032 15.5729 11.5681 15.5729 11.8444C15.5729 12.1207 15.6827 12.3856 15.878 12.581C16.0734 12.7763 16.3383 12.8861 16.6146 12.8861ZM16.6146 17.0527C16.8909 17.0527 17.1558 16.943 17.3512 16.7476C17.5465 16.5523 17.6562 16.2873 17.6562 16.0111C17.6562 15.7348 17.5465 15.4698 17.3512 15.2745C17.1558 15.0791 16.8909 14.9694 16.6146 14.9694C16.3383 14.9694 16.0734 15.0791 15.878 15.2745C15.6827 15.4698 15.5729 15.7348 15.5729 16.0111C15.5729 16.2873 15.6827 16.5523 15.878 16.7476C16.0734 16.943 16.3383 17.0527 16.6146 17.0527ZM12.4479 11.8444C12.4479 12.1207 12.3382 12.3856 12.1428 12.581C11.9475 12.7763 11.6825 12.8861 11.4062 12.8861C11.13 12.8861 10.865 12.7763 10.6697 12.581C10.4743 12.3856 10.3646 12.1207 10.3646 11.8444C10.3646 11.5681 10.4743 11.3032 10.6697 11.1078C10.865 10.9125 11.13 10.8027 11.4062 10.8027C11.6825 10.8027 11.9475 10.9125 12.1428 11.1078C12.3382 11.3032 12.4479 11.5681 12.4479 11.8444ZM12.4479 16.0111C12.4479 16.2873 12.3382 16.5523 12.1428 16.7476C11.9475 16.943 11.6825 17.0527 11.4062 17.0527C11.13 17.0527 10.865 16.943 10.6697 16.7476C10.4743 16.5523 10.3646 16.2873 10.3646 16.0111C10.3646 15.7348 10.4743 15.4698 10.6697 15.2745C10.865 15.0791 11.13 14.9694 11.4062 14.9694C11.6825 14.9694 11.9475 15.0791 12.1428 15.2745C12.3382 15.4698 12.4479 15.7348 12.4479 16.0111ZM6.19792 12.8861C6.47418 12.8861 6.73914 12.7763 6.93449 12.581C7.12984 12.3856 7.23958 12.1207 7.23958 11.8444C7.23958 11.5681 7.12984 11.3032 6.93449 11.1078C6.73914 10.9125 6.47418 10.8027 6.19792 10.8027C5.92165 10.8027 5.6567 10.9125 5.46135 11.1078C5.266 11.3032 5.15625 11.5681 5.15625 11.8444C5.15625 12.1207 5.266 12.3856 5.46135 12.581C5.6567 12.7763 5.92165 12.8861 6.19792 12.8861ZM6.19792 17.0527C6.47418 17.0527 6.73914 16.943 6.93449 16.7476C7.12984 16.5523 7.23958 16.2873 7.23958 16.0111C7.23958 15.7348 7.12984 15.4698 6.93449 15.2745C6.73914 15.0791 6.47418 14.9694 6.19792 14.9694C5.92165 14.9694 5.6567 15.0791 5.46135 15.2745C5.266 15.4698 5.15625 15.7348 5.15625 16.0111C5.15625 16.2873 5.266 16.5523 5.46135 16.7476C5.6567 16.943 5.92165 17.0527 6.19792 17.0527Z" fill="#595959"/>
<path fill-rule="evenodd" clip-rule="evenodd" d="M6.19796 0.125C6.40516 0.125 6.60387 0.20731 6.75039 0.353823C6.8969 0.500336 6.97921 0.69905 6.97921 0.90625V1.70104C7.66879 1.6875 8.42817 1.6875 9.26358 1.6875H13.548C14.3844 1.6875 15.1438 1.6875 15.8334 1.70104V0.90625C15.8334 0.69905 15.9157 0.500336 16.0622 0.353823C16.2087 0.20731 16.4074 0.125 16.6146 0.125C16.8218 0.125 17.0205 0.20731 17.1671 0.353823C17.3136 0.500336 17.3959 0.69905 17.3959 0.90625V1.76771C17.6667 1.78854 17.923 1.81458 18.1657 1.84688C19.3865 2.01146 20.375 2.35729 21.1553 3.13646C21.9344 3.91667 22.2803 4.90521 22.4448 6.12604C22.6042 7.31354 22.6042 8.82917 22.6042 10.7437V12.9437C22.6042 14.8583 22.6042 16.375 22.4448 17.5615C22.2803 18.7823 21.9344 19.7708 21.1553 20.551C20.375 21.3302 19.3865 21.676 18.1657 21.8406C16.9782 22 15.4625 22 13.548 22H9.26462C7.35004 22 5.83337 22 4.64692 21.8406C3.42608 21.676 2.43754 21.3302 1.65733 20.551C0.878166 19.7708 0.532332 18.7823 0.367749 17.5615C0.208374 16.374 0.208374 14.8583 0.208374 12.9437V10.7437C0.208374 8.82917 0.208374 7.3125 0.367749 6.12604C0.532332 4.90521 0.878166 3.91667 1.65733 3.13646C2.43754 2.35729 3.42608 2.01146 4.64692 1.84688C4.88962 1.81458 5.14692 1.78854 5.41671 1.76771V0.90625C5.41671 0.69905 5.49902 0.500336 5.64553 0.353823C5.79204 0.20731 5.99076 0.125 6.19796 0.125ZM4.85421 3.39583C3.80733 3.53646 3.20317 3.80104 2.76254 4.24167C2.32192 4.68229 2.05733 5.28646 1.91671 6.33437C1.89275 6.51146 1.87296 6.69896 1.85629 6.89583H20.9563C20.9396 6.69792 20.9198 6.51146 20.8959 6.33333C20.7553 5.28646 20.4907 4.68229 20.05 4.24167C19.6094 3.80104 19.0053 3.53646 17.9573 3.39583C16.8875 3.25208 15.4761 3.25 13.4896 3.25H9.32296C7.3365 3.25 5.92608 3.25208 4.85421 3.39583ZM1.77087 10.8021C1.77087 9.9125 1.77087 9.13854 1.78442 8.45833H21.0282C21.0417 9.13854 21.0417 9.9125 21.0417 10.8021V12.8854C21.0417 14.8719 21.0396 16.2833 20.8959 17.3542C20.7553 18.401 20.4907 19.0052 20.05 19.4458C19.6094 19.8865 19.0053 20.151 17.9573 20.2917C16.8875 20.4354 15.4761 20.4375 13.4896 20.4375H9.32296C7.3365 20.4375 5.92608 20.4354 4.85421 20.2917C3.80733 20.151 3.20317 19.8865 2.76254 19.4458C2.32192 19.0052 2.05733 18.401 1.91671 17.3531C1.77296 16.2833 1.77087 14.8719 1.77087 12.8854V10.8021Z" fill="#595959"/>
</svg>
