<svg width="25" height="25" viewBox="0 0 25 25" fill="none" xmlns="http://www.w3.org/2000/svg">
<path d="M5.20833 4.16602C4.63542 4.16602 4.16667 4.35352 3.73958 4.75977C3.33333 5.16602 3.125 5.66602 3.125 6.24935V18.7493C3.125 19.3327 3.33333 19.8327 3.73958 20.2389C4.16667 20.6452 4.63542 20.8327 5.20833 20.8327H19.7917C20.3125 20.8327 20.8333 20.6348 21.2396 20.2181C21.6667 19.791 21.875 19.3014 21.875 18.7493V6.24935C21.875 5.69727 21.6667 5.20768 21.2396 4.7806C20.8333 4.36393 20.3125 4.16602 19.7917 4.16602H5.20833ZM4.6875 5.72852H20.3125V19.2702H4.6875V5.72852ZM7.29167 9.37435C6.97917 9.37435 6.73958 9.4681 6.54167 9.66602C6.34375 9.86393 6.25 10.1035 6.25 10.416V14.5827C6.25 14.8952 6.34375 15.1348 6.54167 15.3327C6.73958 15.5306 6.97917 15.6243 7.29167 15.6243H10.4167C10.6979 15.6243 10.9375 15.5306 11.1562 15.3327C11.3646 15.1348 11.4583 14.8952 11.4583 14.5827V13.541H9.89583V14.0618H7.8125V10.9368H9.89583V11.4577H11.4583V10.416C11.4583 10.1035 11.3646 9.86393 11.1562 9.66602C10.9375 9.4681 10.6979 9.37435 10.4167 9.37435H7.29167ZM14.5833 9.37435C14.3021 9.37435 14.0625 9.4681 13.8438 9.66602C13.6354 9.86393 13.5417 10.1035 13.5417 10.416V14.5827C13.5417 14.8952 13.6354 15.1348 13.8438 15.3327C14.0625 15.5306 14.3021 15.6243 14.5833 15.6243H17.7083C18.0208 15.6243 18.2604 15.5306 18.4583 15.3327C18.6562 15.1348 18.75 14.8952 18.75 14.5827V13.541H17.1875V14.0618H15.1042V10.9368H17.1875V11.4577H18.75V10.416C18.75 10.1035 18.6562 9.86393 18.4583 9.66602C18.2604 9.4681 18.0208 9.37435 17.7083 9.37435H14.5833Z" fill="#595959"/>
</svg>
