<svg width="25" height="25" viewBox="0 0 25 25" fill="none" xmlns="http://www.w3.org/2000/svg">
<path fill-rule="evenodd" clip-rule="evenodd" d="M10.896 1.30273H14.1043C15.7741 1.30273 17.0835 1.30273 18.1293 1.40169C19.195 1.50378 20.0679 1.71419 20.8377 2.18503C21.6439 2.67901 22.3218 3.35688 22.8158 4.16315C23.2866 4.9319 23.497 5.80586 23.5991 6.87148C23.6981 7.91732 23.6981 9.22669 23.6981 10.8975V12.009C23.6981 13.1975 23.6981 14.1298 23.646 14.8829C23.5939 15.6486 23.4866 16.2861 23.2418 16.8757C22.9408 17.6024 22.4996 18.2627 21.9434 18.8189C21.3872 19.3751 20.7269 19.8163 20.0002 20.1173C19.1616 20.4652 18.2075 20.5423 16.8991 20.5652C16.5762 20.5639 16.2533 20.5764 15.9314 20.6027C15.7252 20.6257 15.645 20.659 15.5981 20.6861C15.5491 20.7152 15.4814 20.7673 15.3647 20.9277C15.2387 21.1007 15.096 21.3402 14.8689 21.7236L14.3043 22.6777C13.4991 24.0392 11.5022 24.0392 10.696 22.6777L10.1314 21.7236C9.97747 21.4514 9.81205 21.1859 9.63558 20.9277C9.51891 20.7673 9.4512 20.7152 9.40225 20.6861C9.35537 20.659 9.27516 20.6257 9.06891 20.6027C8.84808 20.5788 8.5585 20.5715 8.10016 20.5642C6.79287 20.5423 5.8387 20.4652 5.00016 20.1173C4.27344 19.8163 3.61312 19.3751 3.05691 18.8189C2.5007 18.2627 2.0595 17.6024 1.7585 16.8757C1.5137 16.2861 1.40537 15.6486 1.35329 14.8829C1.30225 14.1298 1.30225 13.1975 1.30225 12.0079V10.8975C1.30225 9.22669 1.30225 7.91836 1.4012 6.87148C1.50329 5.80586 1.7137 4.9319 2.18454 4.16315C2.67853 3.35688 3.35639 2.67901 4.16266 2.18503C4.93141 1.71419 5.80537 1.50378 6.871 1.40169C7.91683 1.30273 9.2262 1.30273 10.897 1.30273H10.896ZM7.01995 2.95794C6.06787 3.04857 5.46266 3.22148 4.97933 3.51732C4.38319 3.8825 3.88202 4.38368 3.51683 4.97982C3.221 5.46315 3.04808 6.06836 2.95745 7.02148C2.86579 7.98398 2.86475 9.2194 2.86475 10.9392V11.9809C2.86475 13.2048 2.86475 14.084 2.91266 14.7777C2.95954 15.4642 3.04912 15.9121 3.20225 16.2788C3.65157 17.3635 4.51337 18.2253 5.59808 18.6746C6.13454 18.8975 6.81995 18.9809 8.12829 19.0038H8.16058C8.57516 19.0111 8.9387 19.0173 9.24079 19.0506C9.56475 19.0871 9.88245 19.159 10.1877 19.3361C10.4897 19.5132 10.7085 19.7475 10.8981 20.0079C11.0741 20.2496 11.2543 20.5548 11.4585 20.8996L12.0408 21.8829C12.0895 21.9609 12.1572 22.0251 12.2375 22.0697C12.3179 22.1142 12.4083 22.1376 12.5002 22.1376C12.592 22.1376 12.6824 22.1142 12.7628 22.0697C12.8431 22.0251 12.9109 21.9609 12.9595 21.8829L13.5418 20.8996C13.746 20.5548 13.9272 20.2496 14.1022 20.0079C14.2918 19.7475 14.5106 19.5121 14.8127 19.3361C15.1179 19.159 15.4356 19.0861 15.7595 19.0506C16.0616 19.0173 16.4252 19.0111 16.8397 19.0038H16.8731C18.1804 18.9809 18.8658 18.8975 19.4022 18.6746C20.487 18.2253 21.3488 17.3635 21.7981 16.2788C21.9512 15.9121 22.0408 15.4642 22.0877 14.7777C22.1356 14.084 22.1356 13.2048 22.1356 11.9809V10.9392C22.1356 9.2194 22.1356 7.98398 22.0429 7.02044C21.9522 6.06836 21.7793 5.46315 21.4835 4.97982C21.1185 4.38418 20.6177 3.88338 20.022 3.51836C19.5387 3.22253 18.9335 3.04961 17.9804 2.95898C17.0179 2.86732 15.7825 2.86628 14.0627 2.86628H10.9377C9.21787 2.86628 7.98245 2.86628 7.01891 2.95898L7.01995 2.95794Z" fill="#000"/>
<path d="M9.37533 11.4596C9.37533 11.7359 9.26558 12.0009 9.07023 12.1962C8.87488 12.3916 8.60993 12.5013 8.33366 12.5013C8.05739 12.5013 7.79244 12.3916 7.59709 12.1962C7.40174 12.0009 7.29199 11.7359 7.29199 11.4596C7.29199 11.1834 7.40174 10.9184 7.59709 10.7231C7.79244 10.5277 8.05739 10.418 8.33366 10.418C8.60993 10.418 8.87488 10.5277 9.07023 10.7231C9.26558 10.9184 9.37533 11.1834 9.37533 11.4596ZM13.542 11.4596C13.542 11.7359 13.4322 12.0009 13.2369 12.1962C13.0415 12.3916 12.7766 12.5013 12.5003 12.5013C12.2241 12.5013 11.9591 12.3916 11.7638 12.1962C11.5684 12.0009 11.4587 11.7359 11.4587 11.4596C11.4587 11.1834 11.5684 10.9184 11.7638 10.7231C11.9591 10.5277 12.2241 10.418 12.5003 10.418C12.7766 10.418 13.0415 10.5277 13.2369 10.7231C13.4322 10.9184 13.542 11.1834 13.542 11.4596ZM17.7087 11.4596C17.7087 11.7359 17.5989 12.0009 17.4036 12.1962C17.2082 12.3916 16.9433 12.5013 16.667 12.5013C16.3907 12.5013 16.1258 12.3916 15.9304 12.1962C15.7351 12.0009 15.6253 11.7359 15.6253 11.4596C15.6253 11.1834 15.7351 10.9184 15.9304 10.7231C16.1258 10.5277 16.3907 10.418 16.667 10.418C16.9433 10.418 17.2082 10.5277 17.4036 10.7231C17.5989 10.9184 17.7087 11.1834 17.7087 11.4596Z" fill="#000"/>
</svg>
