<svg width="36" height="36" viewBox="0 0 36 36" fill="none" xmlns="http://www.w3.org/2000/svg">
<path d="M6 7.5C6 7.10218 6.15804 6.72064 6.43934 6.43934C6.72064 6.15804 7.10218 6 7.5 6H13.5C13.8978 6 14.2794 6.15804 14.5607 6.43934C14.842 6.72064 15 7.10218 15 7.5V15C15 15.3978 14.842 15.7794 14.5607 16.0607C14.2794 16.342 13.8978 16.5 13.5 16.5H7.5C7.10218 16.5 6.72064 16.342 6.43934 16.0607C6.15804 15.7794 6 15.3978 6 15V7.5ZM21 7.5C21 7.10218 21.158 6.72064 21.4393 6.43934C21.7206 6.15804 22.1022 6 22.5 6H28.5C28.8978 6 29.2794 6.15804 29.5607 6.43934C29.842 6.72064 30 7.10218 30 7.5V10.5C30 10.8978 29.842 11.2794 29.5607 11.5607C29.2794 11.842 28.8978 12 28.5 12H22.5C22.1022 12 21.7206 11.842 21.4393 11.5607C21.158 11.2794 21 10.8978 21 10.5V7.5ZM6 24C6 23.6022 6.15804 23.2206 6.43934 22.9393C6.72064 22.658 7.10218 22.5 7.5 22.5H13.5C13.8978 22.5 14.2794 22.658 14.5607 22.9393C14.842 23.2206 15 23.6022 15 24V28.5C15 28.8978 14.842 29.2794 14.5607 29.5607C14.2794 29.842 13.8978 30 13.5 30H7.5C7.10218 30 6.72064 29.842 6.43934 29.5607C6.15804 29.2794 6 28.8978 6 28.5V24ZM21 19.5C21 19.1022 21.158 18.7206 21.4393 18.4393C21.7206 18.158 22.1022 18 22.5 18H28.5C28.8978 18 29.2794 18.158 29.5607 18.4393C29.842 18.7206 30 19.1022 30 19.5V28.5C30 28.8978 29.842 29.2794 29.5607 29.5607C29.2794 29.842 28.8978 30 28.5 30H22.5C22.1022 30 21.7206 29.842 21.4393 29.5607C21.158 29.2794 21 28.8978 21 28.5V19.5Z" stroke="#06202E" stroke-width="2.08333"/>
</svg>
