<svg
                        width="24"
                        height="23"
                        viewBox="0 0 24 23"
                        fill="none"
                        xmlns="http://www.w3.org/2000/svg"
                      >
                        <path
                          d="M20.958 4.7H13.088L10.839 1.934C10.6051 1.64449 10.3098 1.41053 9.9745 1.24901C9.63918 1.08749 9.27218 1.00244 8.9 1H3.52C2.85163 1.00552 2.21235 1.27416 1.74066 1.74772C1.26898 2.22128 1.00287 2.86161 1 3.53L1 19.507C1.00392 20.1746 1.27052 20.8138 1.74213 21.2863C2.21373 21.7589 2.85241 22.0268 3.52 22.032H20.963C21.6317 22.0265 22.2713 21.7576 22.743 21.2836C23.2148 20.8096 23.4807 20.1687 23.483 19.5V7.2C23.4772 6.53442 23.2085 5.89813 22.7355 5.42982C22.2625 4.96152 21.6236 4.69918 20.958 4.7V4.7ZM2.043 19.5V3.53C2.04481 3.13791 2.20069 2.76224 2.47701 2.48406C2.75333 2.20587 3.12793 2.04746 3.52 2.043H8.9C9.11812 2.04565 9.33288 2.09705 9.52858 2.19342C9.72427 2.2898 9.89593 2.42871 10.031 2.6L11.736 4.7H6.186C5.5204 4.69918 4.88146 4.96152 4.40847 5.42982C3.93549 5.89813 3.66681 6.53442 3.661 7.2V20.989H3.52C3.12758 20.9845 2.75268 20.8258 2.47631 20.5472C2.19994 20.2686 2.04429 19.8924 2.043 19.5V19.5ZM22.434 19.5C22.4307 19.8914 22.2744 20.2661 21.9986 20.5439C21.7229 20.8217 21.3494 20.9808 20.958 20.987H4.7V7.2C4.70683 6.81105 4.86663 6.44046 5.14477 6.1685C5.42291 5.89653 5.797 5.7451 6.186 5.747H20.958C21.3457 5.74643 21.7179 5.89861 21.9942 6.17057C22.2705 6.44253 22.4285 6.81237 22.434 7.2V19.5Z"
                          fill="#000"
                          stroke="#000"
                          strokeWidth="0.2"
                        />
                        <path
                          d="M14.3341 10.0772C14.2856 10.0245 14.2267 9.9825 14.1611 9.95375C14.0955 9.925 14.0247 9.91016 13.9531 9.91016C13.8815 9.91016 13.8106 9.925 13.7451 9.95375C13.6795 9.9825 13.6206 10.0245 13.5721 10.0772L10.5151 13.3592C10.4684 13.4092 10.432 13.4679 10.408 13.532C10.384 13.5961 10.3729 13.6642 10.3753 13.7326C10.3777 13.801 10.3936 13.8682 10.4221 13.9304C10.4505 13.9926 10.4909 14.0486 10.5411 14.0952C10.5905 14.1417 10.6488 14.178 10.7123 14.2019C10.7759 14.2258 10.8436 14.2369 10.9115 14.2345C10.9794 14.232 11.0461 14.2162 11.1078 14.1878C11.1695 14.1595 11.225 14.1191 11.2711 14.0692L13.4151 11.7582V17.4582C13.421 17.5926 13.4785 17.7195 13.5756 17.8125C13.6728 17.9055 13.8021 17.9574 13.9366 17.9574C14.0711 17.9574 14.2004 17.9055 14.2975 17.8125C14.3947 17.7195 14.4522 17.5926 14.4581 17.4582V11.7582L16.6181 14.0692C16.6678 14.1217 16.7276 14.1636 16.7939 14.1923C16.8603 14.221 16.9318 14.2359 17.0041 14.2362C17.1053 14.2357 17.2042 14.2058 17.2887 14.1501C17.3733 14.0943 17.4398 14.0152 17.4801 13.9224C17.5205 13.8296 17.533 13.727 17.5161 13.6272C17.4993 13.5274 17.4537 13.4346 17.3851 13.3602L14.3341 10.0772Z"
                          fill="#000"
                          stroke="#000"
                          strokeWidth="0.2"
                        />
                      </svg>