<svg width="26" height="25" viewBox="0 0 26 25" fill="none" xmlns="http://www.w3.org/2000/svg">
<path d="M3.99828 17.709H16.4983C16.7638 17.7093 17.0191 17.8109 17.2122 17.9932C17.4053 18.1755 17.5214 18.4246 17.537 18.6896C17.5526 18.9546 17.4663 19.2156 17.2959 19.4192C17.1255 19.6228 16.8838 19.7537 16.6201 19.785L16.4983 19.7923H3.99828C3.73278 19.792 3.47741 19.6904 3.28435 19.5081C3.09129 19.3258 2.97511 19.0767 2.95956 18.8117C2.944 18.5467 3.03023 18.2857 3.20064 18.0821C3.37104 17.8785 3.61276 17.7476 3.8764 17.7163L3.99828 17.709ZM3.99828 13.5423H22.7483C23.0138 13.5426 23.2691 13.6443 23.4622 13.8265C23.6553 14.0088 23.7714 14.2579 23.787 14.5229C23.8026 14.788 23.7163 15.049 23.5459 15.2526C23.3755 15.4562 23.1338 15.587 22.8702 15.6184L22.7483 15.6257H3.99828C3.73278 15.6254 3.47741 15.5237 3.28435 15.3414C3.09129 15.1592 2.97511 14.9101 2.95956 14.645C2.944 14.38 3.03023 14.119 3.20064 13.9154C3.37104 13.7118 3.61276 13.581 3.8764 13.5496L3.99828 13.5423ZM3.99828 9.37565H22.7483C23.0138 9.37595 23.2691 9.47761 23.4622 9.65987C23.6553 9.84213 23.7714 10.0912 23.787 10.3563C23.8026 10.6213 23.7163 10.8823 23.5459 11.0859C23.3755 11.2895 23.1338 11.4203 22.8702 11.4517L22.7483 11.459H3.99828C3.73278 11.4587 3.47741 11.357 3.28435 11.1748C3.09129 10.9925 2.97511 10.7434 2.95956 10.4784C2.944 10.2133 3.03023 9.95234 3.20064 9.74874C3.37104 9.54515 3.61276 9.4143 3.8764 9.38294L3.99828 9.37565ZM3.99828 5.20898H22.7483C23.0138 5.20928 23.2691 5.31094 23.4622 5.4932C23.6553 5.67546 23.7714 5.92456 23.787 6.1896C23.8026 6.45465 23.7163 6.71563 23.5459 6.91923C23.3755 7.12282 23.1338 7.25367 22.8702 7.28503L22.7483 7.29232H3.99828C3.73278 7.29202 3.47741 7.19036 3.28435 7.0081C3.09129 6.82584 2.97511 6.57674 2.95956 6.3117C2.944 6.04665 3.03023 5.78567 3.20064 5.58208C3.37104 5.37848 3.61276 5.24763 3.8764 5.21628L3.99828 5.20898Z" fill="#595959"/>
</svg>
