<svg width="25" height="25" viewBox="0 0 25 25" fill="none" xmlns="http://www.w3.org/2000/svg">
<path d="M4.16675 9.37435V6.24935C4.16675 5.69681 4.38624 5.16691 4.77694 4.77621C5.16764 4.38551 5.69755 4.16602 6.25008 4.16602H9.37508M20.8334 15.6243V18.7493C20.8334 19.3019 20.6139 19.8318 20.2232 20.2225C19.8325 20.6132 19.3026 20.8327 18.7501 20.8327H15.6251M15.6251 4.16602H18.7501C19.3026 4.16602 19.8325 4.38551 20.2232 4.77621C20.6139 5.16691 20.8334 5.69681 20.8334 6.24935V9.37435M9.37508 20.8327H6.25008C5.69755 20.8327 5.16764 20.6132 4.77694 20.2225C4.38624 19.8318 4.16675 19.3019 4.16675 18.7493V15.6243" stroke="#000" stroke-width="2.60417" stroke-linecap="round" stroke-linejoin="round"/>
</svg>
