<svg width="28" height="29" viewBox="0 0 28 29" fill="none" xmlns="http://www.w3.org/2000/svg">
<path d="M16.4033 11.0233L17.4767 12.0967L6.90667 22.6667H5.83333V21.5933L16.4033 11.0233ZM20.6033 4C20.3117 4 20.0083 4.11667 19.7867 4.33833L17.6517 6.47333L22.0267 10.8483L24.1617 8.71333C24.2698 8.6054 24.3556 8.4772 24.4142 8.33606C24.4727 8.19493 24.5028 8.04363 24.5028 7.89083C24.5028 7.73804 24.4727 7.58674 24.4142 7.44561C24.3556 7.30447 24.2698 7.17627 24.1617 7.06833L21.4317 4.33833C21.1983 4.105 20.9067 4 20.6033 4ZM16.4033 7.72167L3.5 20.625V25H7.875L20.7783 12.0967L16.4033 7.72167Z" fill="#595959"/>
</svg>
