<svg width="30" height="30" viewBox="0 0 30 30" fill="none" xmlns="http://www.w3.org/2000/svg">
<g id="ic:round-greater-than">
<path id="Vector" fill-rule="evenodd" clip-rule="evenodd" d="M9.06228 25.0786L18.4373 17.1855L9.06228 9.29246C8.93917 9.1888 8.83342 9.05554 8.75109 8.90028C8.66876 8.74501 8.61145 8.57079 8.58243 8.38756C8.55341 8.20432 8.55325 8.01566 8.58197 7.83235C8.61068 7.64904 8.66771 7.47467 8.74978 7.31919C8.91554 7.00518 9.17329 6.78719 9.46631 6.71318C9.6114 6.67653 9.76079 6.67633 9.90594 6.7126C10.0511 6.74886 10.1892 6.82088 10.3123 6.92453L20.9398 15.8721C21.111 16.0163 21.2513 16.2116 21.3484 16.4407C21.4455 16.6698 21.4963 16.9257 21.4963 17.1855C21.4963 17.4454 21.4455 17.7012 21.3484 17.9304C21.2513 18.1595 21.111 18.3548 20.9398 18.499L10.3123 27.4466C10.1892 27.5502 10.0511 27.6222 9.90594 27.6585C9.76079 27.6948 9.6114 27.6946 9.46631 27.6579C9.32122 27.6213 9.18326 27.5489 9.06032 27.4449C8.93738 27.3409 8.83186 27.2074 8.74978 27.0519C8.66771 26.8964 8.61068 26.7221 8.58197 26.5387C8.55325 26.3554 8.55341 26.1668 8.58243 25.9835C8.61145 25.8003 8.66876 25.6261 8.75109 25.4708C8.83342 25.3156 8.93917 25.1823 9.06228 25.0786Z" fill="#0D4462"/>
</g>
</svg>
