<svg width="30" height="30" viewBox="0 0 30 30" fill="none" xmlns="http://www.w3.org/2000/svg">
<g id="ic:round-less-than">
<path id="Vector" fill-rule="evenodd" clip-rule="evenodd" d="M20.9379 25.0786L11.5629 17.1855L20.9379 9.29246C21.061 9.1888 21.1668 9.05554 21.2491 8.90028C21.3315 8.74501 21.3888 8.57079 21.4178 8.38756C21.4468 8.20432 21.447 8.01566 21.4182 7.83235C21.3895 7.64904 21.3325 7.47467 21.2504 7.31918C21.1684 7.1637 21.0628 7.03016 20.9399 6.92618C20.817 6.82221 20.679 6.74983 20.5339 6.71318C20.3888 6.67653 20.2394 6.67633 20.0943 6.7126C19.9491 6.74886 19.811 6.82088 19.6879 6.92453L9.06044 15.8721C8.88924 16.0163 8.74887 16.2116 8.65179 16.4407C8.5547 16.6698 8.50391 16.9257 8.50391 17.1855C8.50391 17.4454 8.5547 17.7012 8.65179 17.9304C8.74887 18.1595 8.88924 18.3548 9.06044 18.499L19.6879 27.4466C19.811 27.5502 19.9491 27.6222 20.0943 27.6585C20.2394 27.6948 20.3888 27.6946 20.5339 27.6579C20.679 27.6213 20.817 27.5489 20.9399 27.4449C21.0628 27.3409 21.1684 27.2074 21.2504 27.0519C21.3325 26.8964 21.3895 26.722 21.4182 26.5387C21.447 26.3554 21.4468 26.1668 21.4178 25.9835C21.3888 25.8003 21.3315 25.6261 21.2491 25.4708C21.1668 25.3155 21.061 25.1823 20.9379 25.0786Z" fill="#0D4462"/>
</g>
</svg>
