<svg width="25" height="25" viewBox="0 0 25 25" fill="none" xmlns="http://www.w3.org/2000/svg">
<path d="M15.0519 11.931L15.6813 15.081C15.7609 15.4783 15.9587 15.8423 16.2489 16.1252C16.5391 16.408 16.908 16.5965 17.3072 16.6658L19.8715 17.1123C20.4901 17.2197 21.1264 17.086 21.6495 16.7388C22.1726 16.3915 22.5428 15.8571 22.684 15.2453L23.0215 13.7846C23.4545 11.9087 22.6795 9.85067 20.7563 9.0971C18.876 8.3596 16.042 7.57924 12.4974 7.58995C8.97329 7.60156 6.15276 8.37299 4.27329 9.10067C2.33579 9.84977 1.54829 11.9167 1.98401 13.806L2.31615 15.2453C2.45755 15.8569 2.82784 16.3912 3.35092 16.7382C3.87401 17.0853 4.51016 17.2188 5.12865 17.1114L7.69294 16.6658C8.09216 16.5965 8.46108 16.408 8.75125 16.1252C9.04141 15.8423 9.23927 15.4783 9.31883 15.081L9.94919 11.931C10.0938 11.8971 10.2733 11.8578 10.4769 11.8194C11.0412 11.7123 11.7769 11.6078 12.5001 11.6078C13.2233 11.6078 13.9599 11.7123 14.5233 11.8194C14.7278 11.8578 14.9072 11.8971 15.0519 11.931Z" fill="white"/>
</svg>
