<svg width="484" height="234" viewBox="0 0 484 234" fill="none" xmlns="http://www.w3.org/2000/svg">
<path d="M252.497 87.5085L230.573 145.889H219.485L197.477 87.5085H207.725L225.029 136.061L242.417 87.5085H252.497ZM302.925 121.613C302.925 123.349 302.813 124.917 302.589 126.317H267.225C267.505 130.013 268.877 132.981 271.341 135.221C273.805 137.461 276.829 138.581 280.413 138.581C285.565 138.581 289.205 136.425 291.333 132.113H301.665C300.265 136.369 297.717 139.869 294.021 142.613C290.381 145.301 285.845 146.645 280.413 146.645C275.989 146.645 272.013 145.665 268.485 143.705C265.013 141.689 262.269 138.889 260.253 135.305C258.293 131.665 257.313 127.465 257.313 122.705C257.313 117.945 258.265 113.773 260.169 110.189C262.129 106.549 264.845 103.749 268.317 101.789C271.845 99.8285 275.877 98.8485 280.413 98.8485C284.781 98.8485 288.673 99.8005 292.089 101.705C295.505 103.609 298.165 106.297 300.069 109.769C301.973 113.185 302.925 117.133 302.925 121.613ZM292.929 118.589C292.873 115.061 291.613 112.233 289.149 110.105C286.685 107.977 283.633 106.913 279.993 106.913C276.689 106.913 273.861 107.977 271.509 110.105C269.157 112.177 267.757 115.005 267.309 118.589H292.929ZM373.837 87.5085V145.889H364.261V105.905L346.453 145.889H339.817L321.925 105.905V145.889H312.349V87.5085H322.681L343.177 133.289L363.589 87.5085H373.837ZM428.843 121.613C428.843 123.349 428.731 124.917 428.507 126.317H393.143C393.423 130.013 394.795 132.981 397.259 135.221C399.723 137.461 402.747 138.581 406.331 138.581C411.483 138.581 415.123 136.425 417.251 132.113H427.583C426.183 136.369 423.635 139.869 419.939 142.613C416.299 145.301 411.763 146.645 406.331 146.645C401.907 146.645 397.931 145.665 394.403 143.705C390.931 141.689 388.187 138.889 386.171 135.305C384.211 131.665 383.231 127.465 383.231 122.705C383.231 117.945 384.183 113.773 386.087 110.189C388.047 106.549 390.763 103.749 394.235 101.789C397.763 99.8285 401.795 98.8485 406.331 98.8485C410.699 98.8485 414.591 99.8005 418.007 101.705C421.423 103.609 424.083 106.297 425.987 109.769C427.891 113.185 428.843 117.133 428.843 121.613ZM418.847 118.589C418.791 115.061 417.531 112.233 415.067 110.105C412.603 107.977 409.551 106.913 405.911 106.913C402.607 106.913 399.779 107.977 397.427 110.105C395.075 112.177 393.675 115.005 393.227 118.589H418.847ZM480.687 121.613C480.687 123.349 480.575 124.917 480.351 126.317H444.987C445.267 130.013 446.639 132.981 449.103 135.221C451.567 137.461 454.591 138.581 458.175 138.581C463.327 138.581 466.967 136.425 469.095 132.113H479.427C478.027 136.369 475.479 139.869 471.783 142.613C468.143 145.301 463.607 146.645 458.175 146.645C453.751 146.645 449.775 145.665 446.247 143.705C442.775 141.689 440.031 138.889 438.015 135.305C436.055 131.665 435.075 127.465 435.075 122.705C435.075 117.945 436.027 113.773 437.931 110.189C439.891 106.549 442.607 103.749 446.079 101.789C449.607 99.8285 453.639 98.8485 458.175 98.8485C462.543 98.8485 466.435 99.8005 469.851 101.705C473.267 103.609 475.927 106.297 477.831 109.769C479.735 113.185 480.687 117.133 480.687 121.613ZM470.691 118.589C470.635 115.061 469.375 112.233 466.911 110.105C464.447 107.977 461.395 106.913 457.755 106.913C454.451 106.913 451.623 107.977 449.271 110.105C446.919 112.177 445.519 115.005 445.071 118.589H470.691Z" fill="#FAFAFA"/>
<mask id="mask0_1_2" style="mask-type:alpha" maskUnits="userSpaceOnUse" x="0" y="0" width="117" height="117">
<path d="M116.673 62.9325C116.673 62.9325 95.4594 61.5183 78.4888 78.4888C61.5183 95.4594 62.9325 116.673 62.9325 116.673L-1.84774e-06 53.7401C-1.84774e-06 53.7401 16.3766 37.3635 26.8701 26.87C37.3635 16.3766 53.7401 -7.33137e-06 53.7401 -7.33137e-06L116.673 62.9325Z" fill="#D9D9D9"/>
</mask>
<g mask="url(#mask0_1_2)">
<path d="M49.4975 103.238C41.687 95.4271 41.687 82.7638 49.4975 74.9533L74.9533 49.4975C82.7638 41.687 95.4271 41.687 103.238 49.4975L116.673 62.9325L62.9325 116.673L49.4975 103.238Z" fill="#FAFAFA"/>
<circle cx="41.0122" cy="41.0122" r="20" transform="rotate(-45 41.0122 41.0122)" fill="#FAFAFA"/>
</g>
<circle cx="117.14" cy="117.14" r="31.2114" transform="rotate(-45 117.14 117.14)" fill="#F76721"/>
<mask id="mask1_1_2" style="mask-type:alpha" maskUnits="userSpaceOnUse" x="116" y="0" width="118" height="117">
<path d="M170.411 116.674C170.411 116.674 171.825 95.4613 154.855 78.4907C137.884 61.5201 116.671 62.9343 116.671 62.9343L179.604 0.00183684C179.604 0.00183684 195.98 16.3785 206.474 26.8719C216.967 37.3653 233.344 53.742 233.344 53.742L170.411 116.674Z" fill="#D9D9D9"/>
</mask>
<g mask="url(#mask1_1_2)">
<path d="M130.106 49.4993C137.917 41.6888 150.58 41.6888 158.39 49.4993L183.846 74.9552C191.657 82.7656 191.657 95.4289 183.846 103.239L170.411 116.674L116.671 62.9343L130.106 49.4993Z" fill="#FAFAFA"/>
<circle cx="192.331" cy="41.014" r="20" transform="rotate(45 192.331 41.014)" fill="#FAFAFA"/>
</g>
<mask id="mask2_1_2" style="mask-type:alpha" maskUnits="userSpaceOnUse" x="116" y="116" width="118" height="118">
<path d="M116.671 170.415C116.671 170.415 137.884 171.829 154.855 154.859C171.825 137.888 170.411 116.675 170.411 116.675L233.344 179.607C233.344 179.607 216.967 195.984 206.474 206.477C195.98 216.971 179.604 233.347 179.604 233.347L116.671 170.415Z" fill="#D9D9D9"/>
</mask>
<g mask="url(#mask2_1_2)">
<path d="M183.846 130.11C191.657 137.92 191.657 150.584 183.846 158.394L158.39 183.85C150.58 191.66 137.917 191.66 130.106 183.85L116.671 170.415L170.411 116.675L183.846 130.11Z" fill="#FAFAFA"/>
<circle cx="192.332" cy="192.335" r="20" transform="rotate(135 192.332 192.335)" fill="#FAFAFA"/>
</g>
<mask id="mask3_1_2" style="mask-type:alpha" maskUnits="userSpaceOnUse" x="0" y="116" width="117" height="118">
<path d="M62.9326 116.673C62.9326 116.673 61.5184 137.886 78.489 154.857C95.4595 171.827 116.673 170.413 116.673 170.413L53.7402 233.346C53.7402 233.346 37.3636 216.969 26.8702 206.476C16.3768 195.982 0.000114739 179.605 0.000114739 179.605L62.9326 116.673Z" fill="#D9D9D9"/>
</mask>
<g mask="url(#mask3_1_2)">
<path d="M103.238 183.848C95.4272 191.659 82.7639 191.659 74.9534 183.848L49.4976 158.392C41.6871 150.582 41.6871 137.918 49.4976 130.108L62.9326 116.673L116.673 170.413L103.238 183.848Z" fill="#FAFAFA"/>
<circle cx="41.0123" cy="192.333" r="20" transform="rotate(-135 41.0123 192.333)" fill="#FAFAFA"/>
</g>
</svg>
