
                      <svg
                        width="33"
                        height="29"
                        viewBox="0 0 33 29"
                        fill="none"
                        xmlns="http://www.w3.org/2000/svg"
                      >
                        <path
                          d="M26.0042 8.55664H23.5572C23.253 8.55664 22.9612 8.67749 22.7461 8.89259C22.531 9.1077 22.4102 9.39944 22.4102 9.70364C22.4102 10.0078 22.531 10.2996 22.7461 10.5147C22.9612 10.7298 23.253 10.8506 23.5572 10.8506H26.0042C26.3084 10.8506 26.6001 10.7298 26.8152 10.5147C27.0303 10.2996 27.1512 10.0078 27.1512 9.70364C27.1512 9.39944 27.0303 9.1077 26.8152 8.89259C26.6001 8.67749 26.3084 8.55664 26.0042 8.55664V8.55664Z"
                          fill="#06202e"
                        />
                        <path
                          d="M20.4439 7.18853H26.5609C26.8651 7.18853 27.1568 7.06769 27.3719 6.85258C27.587 6.63748 27.7079 6.34574 27.7079 6.04153C27.7079 5.73733 27.587 5.44558 27.3719 5.23048C27.1568 5.01537 26.8651 4.89453 26.5609 4.89453H20.4439C20.1397 4.89453 19.8479 5.01537 19.6328 5.23048C19.4177 5.44558 19.2969 5.73733 19.2969 6.04153C19.2969 6.34574 19.4177 6.63748 19.6328 6.85258C19.8479 7.06769 20.1397 7.18853 20.4439 7.18853V7.18853Z"
                          fill="#06202e"
                        />
                        <path
                          d="M30.06 14.667C30.7744 14.6026 31.4389 14.2736 31.923 13.7444C32.4072 13.2153 32.6761 12.5242 32.677 11.807V2.872C32.6762 2.10968 32.3727 1.37888 31.8332 0.840302C31.2937 0.301726 30.5623 -0.00053003 29.8 6.97742e-07H20.3C19.5385 0.000794849 18.8085 0.303636 18.2701 0.842068C17.7316 1.3805 17.4288 2.11054 17.428 2.872V6.637H5.489C4.72754 6.6378 3.9975 6.94063 3.45907 7.47907C2.92063 8.0175 2.61779 8.74754 2.617 9.509V21C2.61702 21.3261 2.67283 21.6497 2.782 21.957H1.723C1.26654 21.9575 0.828898 22.139 0.505945 22.4615C0.182991 22.7841 0.00105815 23.2215 0 23.678C0.00132359 24.9472 0.506092 26.164 1.40354 27.0615C2.30099 27.9589 3.51782 28.4637 4.787 28.465H27.887C29.1562 28.4637 30.373 27.9589 31.2705 27.0615C32.1679 26.164 32.6727 24.9472 32.674 23.678C32.6735 23.2212 32.4918 22.7832 32.1688 22.4602C31.8458 22.1372 31.4078 21.9555 30.951 21.955H29.9C30.0072 21.6481 30.0614 21.3251 30.06 21V14.667ZM19.338 2.867C19.3383 2.61327 19.4392 2.37001 19.6186 2.19059C19.798 2.01118 20.0413 1.91027 20.295 1.91H29.8C30.0537 1.91027 30.297 2.01118 30.4764 2.19059C30.6558 2.37001 30.7567 2.61327 30.757 2.867V11.802C30.7567 12.0557 30.6558 12.299 30.4764 12.4784C30.297 12.6578 30.0537 12.7587 29.8 12.759H20.934C20.7547 12.7592 20.579 12.8098 20.427 12.905L18.5 14.116L19.3 11.444C19.3266 11.3548 19.3401 11.2621 19.34 11.169L19.338 2.867ZM27.89 26.55H4.787C4.05858 26.5491 3.35762 26.2719 2.82566 25.7743C2.2937 25.2767 1.97039 24.5957 1.921 23.869H30.756C30.7066 24.5957 30.3833 25.2767 29.8513 25.7743C29.3194 26.2719 28.6184 26.5491 27.89 26.55ZM9.127 14.743C9.127 14.5284 9.19063 14.3186 9.30986 14.1402C9.42908 13.9618 9.59853 13.8227 9.79679 13.7406C9.99505 13.6585 10.2132 13.637 10.4237 13.6788C10.6341 13.7207 10.8275 13.824 10.9792 13.9758C11.131 14.1275 11.2343 14.3209 11.2762 14.5313C11.318 14.7418 11.2965 14.96 11.2144 15.1582C11.1323 15.3565 10.9932 15.5259 10.8148 15.6451C10.6364 15.7644 10.4266 15.828 10.212 15.828C9.92432 15.8277 9.6485 15.7133 9.44508 15.5099C9.24166 15.3065 9.12726 15.0307 9.127 14.743V14.743ZM8.616 18.828C8.616 18.25 9.362 17.743 10.216 17.743C10.6481 17.7367 11.0701 17.8739 11.416 18.133C11.528 18.2132 11.621 18.3171 11.6886 18.4371C11.7561 18.5572 11.7966 18.6906 11.807 18.828V21.955H8.616V18.828ZM13.722 21.955V18.827C13.7139 18.402 13.6099 17.9844 13.4179 17.6052C13.2259 17.226 12.9507 16.895 12.613 16.637L12.565 16.6C12.9156 16.1581 13.1346 15.6264 13.1967 15.0657C13.2589 14.505 13.1617 13.9382 12.9163 13.4303C12.671 12.9224 12.2874 12.4939 11.8096 12.1941C11.3318 11.8942 10.7791 11.7352 10.215 11.7352C9.65091 11.7352 9.09825 11.8942 8.62044 12.1941C8.14263 12.4939 7.75903 12.9224 7.51367 13.4303C7.2683 13.9382 7.17112 14.505 7.23326 15.0657C7.2954 15.6264 7.51436 16.1581 7.865 16.6C7.51195 16.856 7.22302 17.1903 7.02089 17.5766C6.81876 17.963 6.70892 18.391 6.7 18.827V21.954H5.489C5.23561 21.954 4.99255 21.8536 4.813 21.6748C4.63346 21.496 4.53206 21.2534 4.531 21V9.509C4.53126 9.25527 4.63218 9.01201 4.81159 8.83259C4.99101 8.65318 5.23427 8.55226 5.488 8.552H17.423V11.028L16.662 13.566C16.5485 13.9391 16.5517 14.338 16.6713 14.7092C16.791 15.0804 17.0212 15.4061 17.3313 15.6427C17.6413 15.8793 18.0163 16.0154 18.4059 16.0328C18.7955 16.0502 19.1811 15.948 19.511 15.74L21.211 14.679H28.148V21C28.1477 21.2537 28.0468 21.497 27.8674 21.6764C27.688 21.8558 27.4447 21.9567 27.191 21.957L13.722 21.955Z"
                          fill="#06202e"
                        />
                      </svg>