<svg
                          width="25"
                          height="23"
                          viewBox="0 0 25 23"
                          fill="none"
                          xmlns="http://www.w3.org/2000/svg"
                        >
                          <g clipPath="url(#clip0)">
                            <path
                              id="muteall_participants1"
                              d="M20.7673 11.342L24.0554 14.63C24.119 14.6937 24.1548 14.78 24.1548 14.87C24.1548 14.96 24.119 15.0464 24.0554 15.11C23.9917 15.1737 23.9054 15.2094 23.8153 15.2094C23.7253 15.2094 23.639 15.1737 23.5753 15.11L20.2874 11.822L16.9994 15.11C16.9357 15.1737 16.8494 15.2094 16.7593 15.2094C16.6693 15.2094 16.583 15.1737 16.5193 15.11C16.4557 15.0464 16.4199 14.96 16.4199 14.87C16.4199 14.78 16.4557 14.6937 16.5193 14.63L19.8073 11.342L16.5193 8.05402C16.4878 8.0225 16.4628 7.98508 16.4458 7.9439C16.4287 7.90272 16.4199 7.85859 16.4199 7.81402C16.4199 7.76945 16.4287 7.72531 16.4458 7.68413C16.4628 7.64295 16.4878 7.60554 16.5193 7.57402C16.5509 7.5425 16.5883 7.5175 16.6295 7.50044C16.6706 7.48339 16.7148 7.47461 16.7593 7.47461C16.8039 7.47461 16.848 7.48339 16.8892 7.50044C16.9304 7.5175 16.9678 7.5425 16.9994 7.57402L20.2874 10.862L23.5733 7.57702C23.637 7.51337 23.7233 7.47761 23.8134 7.47761C23.9034 7.47761 23.9897 7.51337 24.0533 7.57702C24.117 7.64067 24.1528 7.727 24.1528 7.81702C24.1528 7.90703 24.117 7.99336 24.0533 8.05701L20.7673 11.342Z"
                              fill="#000"
                              stroke="#000"
                              strokeWidth="0.6"
                            />
                            <path
                              id="muteall_participants2"
                              d="M2.90078 6.16238H5.10078L13.2748 0.413378C13.3594 0.353875 13.4587 0.318745 13.5619 0.311816C13.6651 0.304887 13.7683 0.326426 13.8601 0.374085C13.9519 0.421744 14.0289 0.493693 14.0826 0.582089C14.1363 0.670485 14.1648 0.771935 14.1648 0.875378V21.8074C14.1648 21.9108 14.1363 22.0123 14.0826 22.1007C14.0289 22.1891 13.9519 22.261 13.8601 22.3087C13.7683 22.3563 13.6651 22.3779 13.5619 22.3709C13.4587 22.364 13.3594 22.3289 13.2748 22.2694L5.10078 16.5214H2.90078C2.21122 16.5214 1.5499 16.2475 1.0623 15.7599C0.574709 15.2723 0.300781 14.6109 0.300781 13.9214L0.300781 8.76238C0.300781 8.07282 0.574709 7.4115 1.0623 6.9239C1.5499 6.43631 2.21122 6.16238 2.90078 6.16238V6.16238ZM0.978781 13.9214C0.979311 14.431 1.18198 14.9195 1.54231 15.2799C1.90264 15.6402 2.3912 15.8428 2.90078 15.8434H5.25478C5.31341 15.8434 5.37105 15.8586 5.42205 15.8875C5.47306 15.9164 5.51569 15.9581 5.54578 16.0084L13.4858 21.5894V1.09338L5.54678 6.67538C5.51669 6.7257 5.47406 6.76735 5.42305 6.79627C5.37205 6.82519 5.31441 6.84039 5.25578 6.84038H2.90078C2.3912 6.84091 1.90264 7.04357 1.54231 7.4039C1.18198 7.76423 0.979311 8.2528 0.978781 8.76238V13.9214Z"
                              fill="#000"
                              stroke="#000"
                              strokeWidth="0.6"
                            />
                          </g>
                          <defs>
                            <clipPath id="clip0">
                              <rect
                                width="24.488"
                                height="22.683"
                                fill="#595959"
                              />
                            </clipPath>
                          </defs>
                        </svg>