<svg width="88" height="88" viewBox="0 0 88 88" fill="none" xmlns="http://www.w3.org/2000/svg">
<g filter="url(#filter0_d_396_492)">
<rect x="4" y="4" width="80" height="80" fill="#E6E6EB"/>
</g>
<path d="M44.0001 24.0001C42.1144 23.9926 40.2951 24.6957 38.9045 25.9694C37.514 27.2431 36.6543 28.9939 36.4966 30.873C36.339 32.7521 36.895 34.6217 38.0539 36.1092C39.2128 37.5968 40.8895 38.5932 42.7501 38.9001V42.7501H35.2501C34.2555 42.7501 33.3017 43.1451 32.5984 43.8484C31.8952 44.5517 31.5001 45.5055 31.5001 46.5001V49.1051C29.6452 49.4185 27.9757 50.4173 26.8225 51.9037C25.6693 53.39 25.1166 55.2553 25.2738 57.1299C25.4311 59.0045 26.2869 60.7517 27.6716 62.0251C29.0563 63.2985 30.8689 64.0052 32.7501 64.0052C34.6313 64.0052 36.4439 63.2985 37.8286 62.0251C39.2133 60.7517 40.069 59.0045 40.2263 57.1299C40.3836 55.2553 39.8308 53.39 38.6777 51.9037C37.5245 50.4173 35.855 49.4185 34.0001 49.1051V46.5001C34.0001 46.1685 34.1318 45.8506 34.3662 45.6162C34.6006 45.3818 34.9186 45.2501 35.2501 45.2501H52.7501C53.0816 45.2501 53.3995 45.3818 53.634 45.6162C53.8684 45.8506 54.0001 46.1685 54.0001 46.5001V49.1051C52.1452 49.4185 50.4757 50.4173 49.3225 51.9037C48.1693 53.39 47.6166 55.2553 47.7738 57.1299C47.9311 59.0045 48.7869 60.7517 50.1716 62.0251C51.5563 63.2985 53.3689 64.0052 55.2501 64.0052C57.1313 64.0052 58.9439 63.2985 60.3286 62.0251C61.7133 60.7517 62.569 59.0045 62.7263 57.1299C62.8836 55.2553 62.3308 53.39 61.1777 51.9037C60.0245 50.4173 58.355 49.4185 56.5001 49.1051V46.5001C56.5001 45.5055 56.105 44.5517 55.4017 43.8484C54.6985 43.1451 53.7446 42.7501 52.7501 42.7501H45.2501V38.9001C47.1048 38.5865 48.7741 37.5875 49.9271 36.1013C51.0801 34.615 51.6328 32.7498 51.4755 30.8754C51.3183 29.0009 50.4626 27.2538 49.078 25.9805C47.6935 24.7071 45.8811 24.0003 44.0001 24.0001ZM39.0001 31.5001C39.0001 30.174 39.5269 28.9022 40.4645 27.9645C41.4022 27.0268 42.674 26.5001 44.0001 26.5001C45.3262 26.5001 46.5979 27.0268 47.5356 27.9645C48.4733 28.9022 49.0001 30.174 49.0001 31.5001C49.0001 32.8261 48.4733 34.0979 47.5356 35.0356C46.5979 35.9733 45.3262 36.5001 44.0001 36.5001C42.674 36.5001 41.4022 35.9733 40.4645 35.0356C39.5269 34.0979 39.0001 32.8261 39.0001 31.5001ZM27.7501 56.5001C27.7501 55.1736 28.277 53.9016 29.2149 52.9636C30.1528 52.0257 31.4249 51.4988 32.7513 51.4988C34.0777 51.4988 35.3498 52.0257 36.2877 52.9636C37.2257 53.9016 37.7526 55.1736 37.7526 56.5001C37.7526 57.8265 37.2257 59.0986 36.2877 60.0365C35.3498 60.9744 34.0777 61.5013 32.7513 61.5013C31.4249 61.5013 30.1528 60.9744 29.2149 60.0365C28.277 59.0986 27.7501 57.8265 27.7501 56.5001ZM55.2501 51.5001C55.9068 51.5001 56.5572 51.6294 57.164 51.8808C57.7707 52.1321 58.3221 52.5005 58.7865 52.9649C59.2509 53.4293 59.6193 53.9806 59.8706 54.5874C60.122 55.1942 60.2513 55.8445 60.2513 56.5013C60.2513 57.1581 60.122 57.8084 59.8706 58.4152C59.6193 59.022 59.2509 59.5733 58.7865 60.0377C58.3221 60.5021 57.7707 60.8705 57.164 61.1219C56.5572 61.3732 55.9068 61.5026 55.2501 61.5026C53.9237 61.5026 52.6516 60.9756 51.7137 60.0377C50.7757 59.0998 50.2488 57.8277 50.2488 56.5013C50.2488 55.1749 50.7757 53.9028 51.7137 52.9649C52.6516 52.027 53.9237 51.5001 55.2501 51.5001Z" fill="#595959"/>
<defs>
<filter id="filter0_d_396_492" x="0" y="0" width="88" height="88" filterUnits="userSpaceOnUse" color-interpolation-filters="sRGB">
<feFlood flood-opacity="0" result="BackgroundImageFix"/>
<feColorMatrix in="SourceAlpha" type="matrix" values="0 0 0 0 0 0 0 0 0 0 0 0 0 0 0 0 0 0 127 0" result="hardAlpha"/>
<feOffset/>
<feGaussianBlur stdDeviation="2"/>
<feComposite in2="hardAlpha" operator="out"/>
<feColorMatrix type="matrix" values="0 0 0 0 0 0 0 0 0 0 0 0 0 0 0 0 0 0 0.25 0"/>
<feBlend mode="normal" in2="BackgroundImageFix" result="effect1_dropShadow_396_492"/>
<feBlend mode="normal" in="SourceGraphic" in2="effect1_dropShadow_396_492" result="shape"/>
</filter>
</defs>
</svg>
