<svg width="25" height="25" viewBox="0 0 25 25" fill="none" xmlns="http://www.w3.org/2000/svg">
<path d="M9.37516 10.4173C11.6763 10.4173 13.5418 8.55184 13.5418 6.25065C13.5418 3.94946 11.6763 2.08398 9.37516 2.08398C7.07398 2.08398 5.2085 3.94946 5.2085 6.25065C5.2085 8.55184 7.07398 10.4173 9.37516 10.4173Z" stroke="#000" stroke-width="1.5"/>
<path d="M15.6252 9.375C16.454 9.375 17.2488 9.04576 17.8349 8.45971C18.4209 7.87366 18.7502 7.0788 18.7502 6.25C18.7502 5.4212 18.4209 4.62634 17.8349 4.04029C17.2488 3.45424 16.454 3.125 15.6252 3.125M6.13558 21.4417C7.10954 21.7187 8.21058 21.875 9.37516 21.875C13.4022 21.875 16.6668 20.0104 16.6668 17.7083C16.6668 15.4062 13.4022 13.5417 9.37516 13.5417C5.34808 13.5417 2.0835 15.4062 2.0835 17.7083C2.0835 18.0677 2.1637 18.4167 2.31266 18.75M18.7502 14.5833C20.5772 14.9844 21.8752 15.999 21.8752 17.1875C21.8752 18.2604 20.8189 19.1906 19.271 19.6563" stroke="#000" stroke-width="1.5" stroke-linecap="round"/>
</svg>
