<svg width="36" height="36" viewBox="0 0 36 36" fill="none" xmlns="http://www.w3.org/2000/svg">
<path d="M18 4.5C20.6701 4.5 23.2801 5.29176 25.5002 6.77516C27.7203 8.25856 29.4506 10.367 30.4724 12.8338C31.4942 15.3006 31.7615 18.015 31.2406 20.6337C30.7197 23.2525 29.434 25.6579 27.5459 27.5459C25.6579 29.434 23.2525 30.7197 20.6337 31.2406C18.015 31.7615 15.3006 31.4942 12.8338 30.4724C10.367 29.4506 8.25857 27.7203 6.77517 25.5002C5.29177 23.2801 4.50001 20.67 4.50001 18C4.50001 14.4196 5.92232 10.9858 8.45406 8.45406C10.9858 5.92232 14.4196 4.5 18 4.5ZM18 2.25C14.885 2.25 11.8398 3.17372 9.24977 4.90435C6.6597 6.63499 4.64098 9.0948 3.4489 11.9727C2.25682 14.8507 1.94492 18.0175 2.55264 21.0727C3.16036 24.1279 4.6604 26.9343 6.86307 29.1369C9.06575 31.3396 11.8721 32.8397 14.9273 33.4474C17.9825 34.0551 21.1493 33.7432 24.0273 32.5511C26.9052 31.359 29.365 29.3403 31.0957 26.7502C32.8263 24.1602 33.75 21.1151 33.75 18C33.75 13.8228 32.0906 9.81677 29.1369 6.86307C26.1832 3.90937 22.1772 2.25 18 2.25Z" fill="#06202E"/>
<path d="M18 13.5C18.89 13.5 19.76 13.7639 20.5001 14.2584C21.2401 14.7529 21.8169 15.4557 22.1575 16.2779C22.4981 17.1002 22.5872 18.005 22.4135 18.8779C22.2399 19.7508 21.8113 20.5526 21.182 21.182C20.5526 21.8113 19.7508 22.2399 18.8779 22.4135C18.005 22.5872 17.1002 22.4981 16.2779 22.1575C15.4557 21.8169 14.7529 21.2401 14.2584 20.5001C13.7639 19.76 13.5 18.89 13.5 18C13.5 16.8065 13.9741 15.6619 14.818 14.818C15.6619 13.9741 16.8065 13.5 18 13.5ZM18 11.25C16.665 11.25 15.3599 11.6459 14.2499 12.3876C13.1399 13.1293 12.2747 14.1835 11.7638 15.4169C11.2529 16.6503 11.1193 18.0075 11.3797 19.3169C11.6402 20.6262 12.283 21.829 13.227 22.773C14.171 23.717 15.3738 24.3599 16.6831 24.6203C17.9925 24.8808 19.3497 24.7471 20.5831 24.2362C21.8165 23.7253 22.8707 22.8601 23.6124 21.7501C24.3541 20.6401 24.75 19.335 24.75 18C24.75 16.2098 24.0388 14.4929 22.773 13.227C21.5071 11.9612 19.7902 11.25 18 11.25Z" fill="#06202E"/>
</svg>
