<?xml version="1.0" standalone="no"?>
<!DOCTYPE svg PUBLIC "-//W3C//DTD SVG 20010904//EN"
 "http://www.w3.org/TR/2001/REC-SVG-20010904/DTD/svg10.dtd">
<svg version="1.0" xmlns="http://www.w3.org/2000/svg"
 width="286.000000pt" height="281.000000pt" viewBox="0 0 286.000000 281.000000"
 preserveAspectRatio="xMidYMid meet">

<g transform="translate(0.000000,281.000000) scale(0.100000,-0.100000)"
fill="#06202e" stroke="#06202e">
<path d="M120 2794 c-42 -18 -76 -49 -98 -89 -16 -27 -17 -138 -19 -1280 -3
-1426 -9 -1321 81 -1382 l48 -33 665 0 c560 0 668 2 692 14 35 19 89 79 96
109 3 12 4 594 3 1293 l-3 1271 -29 37 c-59 78 -30 76 -756 75 -554 0 -650 -2
-680 -15z m286 -99 l23 -25 366 0 c367 0 405 3 405 35 0 12 21 15 119 15 114
0 121 -1 150 -26 l31 -26 0 -1255 c0 -879 -3 -1260 -11 -1275 -25 -47 -37 -48
-693 -48 -375 0 -625 4 -640 10 -14 5 -35 24 -46 42 -20 33 -20 51 -20 1261 0
1308 -1 1278 47 1306 10 6 69 11 132 11 109 0 115 -1 137 -25z"/>
<path d="M1677 2742 c-15 -16 -16 -24 -7 -41 9 -17 20 -21 63 -21 118 -1 306
-54 415 -117 154 -89 289 -229 367 -383 46 -92 107 -300 87 -300 -4 0 -28 21
-52 46 -25 25 -53 50 -62 55 -26 14 -60 -7 -56 -34 3 -26 199 -217 222 -217
16 0 199 202 204 226 5 20 -16 44 -38 44 -9 0 -41 -27 -70 -61 -29 -33 -56
-57 -59 -52 -4 4 -15 48 -25 97 -57 284 -267 547 -541 677 -95 46 -240 85
-350 94 -73 6 -82 5 -98 -13z"/>
<path d="M1650 1550 l0 -40 491 0 c534 0 542 -1 568 -56 6 -14 11 -73 11 -131
0 -100 -1 -107 -25 -129 l-25 -23 0 -370 c0 -323 2 -372 16 -385 8 -9 20 -16
25 -16 5 0 9 -53 9 -120 0 -116 -1 -120 -27 -150 l-28 -31 -500 1 c-275 0
-505 -3 -510 -8 -6 -4 -21 -24 -33 -45 l-21 -37 537 0 538 0 46 29 c88 56 83
12 86 731 2 436 0 651 -8 686 -12 55 -53 104 -103 123 -19 7 -203 11 -538 11
l-509 0 0 -40z"/>
</g>
</svg>
