<svg
                        width="26"
                        height="26"
                        viewBox="0 0 26 26"
                        fill="none"
                        xmlns="http://www.w3.org/2000/svg"
                      >
                        <path
                          d="M12.7653 16.0423C13.4134 16.0423 14.047 15.8501 14.5859 15.49C15.1248 15.1299 15.5448 14.6181 15.7928 14.0193C16.0409 13.4205 16.1058 12.7616 15.9793 12.126C15.8529 11.4903 15.5408 10.9064 15.0825 10.4481C14.6242 9.9898 14.0403 9.67769 13.4046 9.55125C12.7689 9.42481 12.11 9.4897 11.5112 9.73773C10.9124 9.98576 10.4006 10.4058 10.0406 10.9447C9.68047 11.4836 9.48828 12.1172 9.48828 12.7653C9.48828 13.6344 9.83354 14.4679 10.4481 15.0825C11.0626 15.697 11.8962 16.0423 12.7653 16.0423V16.0423Z"
                          stroke="#000"
                          strokeWidth="1.5"
                          strokeLinecap="round"
                          strokeLinejoin="round"
                        />
                        <path
                          d="M20.85 16.044C20.7042 16.3734 20.6606 16.7389 20.7248 17.0933C20.789 17.4477 20.958 17.7747 21.21 18.032L21.276 18.098C21.686 18.5079 21.9164 19.0639 21.9165 19.6436C21.9166 20.2234 21.6864 20.7795 21.2765 21.1895C20.8666 21.5995 20.3106 21.8299 19.7309 21.83C19.1511 21.8301 18.595 21.5999 18.185 21.19L18.119 21.124C17.8637 20.8758 17.541 20.7083 17.1912 20.6421C16.8413 20.576 16.4797 20.6142 16.1514 20.752C15.8231 20.8898 15.5426 21.1212 15.3448 21.4172C15.147 21.7133 15.0407 22.061 15.039 22.417V22.603C15.039 23.1825 14.8088 23.7383 14.399 24.148C13.9893 24.5578 13.4335 24.788 12.854 24.788C12.2745 24.788 11.7187 24.5578 11.309 24.148C10.8992 23.7383 10.669 23.1825 10.669 22.603V22.503C10.661 22.1412 10.5441 21.7903 10.3336 21.4959C10.1231 21.2016 9.82875 20.9776 9.489 20.853C9.15965 20.7072 8.79414 20.6636 8.43973 20.7278C8.08532 20.792 7.75832 20.961 7.501 21.213L7.435 21.279C7.23335 21.4878 6.99214 21.6544 6.72543 21.769C6.45873 21.8835 6.17187 21.9439 5.8816 21.9464C5.59133 21.9489 5.30346 21.8936 5.0348 21.7837C4.76613 21.6738 4.52205 21.5115 4.31679 21.3062C4.11153 21.101 3.94921 20.8569 3.83929 20.5882C3.72938 20.3195 3.67407 20.0317 3.67661 19.7414C3.67914 19.4511 3.73946 19.1643 3.85405 18.8976C3.96863 18.6309 4.13519 18.3896 4.344 18.188L4.41 18.122C4.65917 17.8668 4.82763 17.5439 4.89435 17.1935C4.96107 16.8432 4.92309 16.4809 4.78515 16.152C4.64721 15.8231 4.41543 15.5422 4.11875 15.3442C3.82207 15.1463 3.47365 15.0401 3.117 15.039H2.935C2.3555 15.039 1.79974 14.8088 1.38997 14.399C0.980205 13.9893 0.75 13.4335 0.75 12.854C0.75 12.2745 0.980205 11.7187 1.38997 11.309C1.79974 10.8992 2.3555 10.669 2.935 10.669H3.035C3.39677 10.661 3.74772 10.5441 4.04205 10.3336C4.33639 10.1231 4.56045 9.82875 4.685 9.489C4.83078 9.15965 4.87439 8.79414 4.81022 8.43973C4.74604 8.08532 4.57701 7.75832 4.325 7.501L4.257 7.436C3.84698 7.02611 3.61657 6.47012 3.61648 5.89035C3.61639 5.31058 3.84661 4.75452 4.2565 4.3445C4.66639 3.93448 5.22238 3.70407 5.80215 3.70398C6.38192 3.70389 6.93798 3.93411 7.348 4.344L7.414 4.41C7.67132 4.66201 7.99832 4.83104 8.35273 4.89522C8.70714 4.95939 9.07265 4.91578 9.402 4.77H9.489C9.81294 4.63164 10.0892 4.40128 10.2835 4.10745C10.4777 3.81363 10.5815 3.46925 10.582 3.117V2.935C10.582 2.3555 10.8122 1.79974 11.222 1.38997C11.6317 0.980205 12.1875 0.75 12.767 0.75C13.3465 0.75 13.9023 0.980205 14.312 1.38997C14.7218 1.79974 14.952 2.3555 14.952 2.935V3.035C14.9538 3.39111 15.0604 3.73882 15.2585 4.03477C15.4565 4.33073 15.7373 4.56183 16.0659 4.69928C16.3944 4.83672 16.7561 4.87443 17.1059 4.80769C17.4557 4.74096 17.7781 4.57274 18.033 4.324L18.099 4.258C18.3006 4.04919 18.5419 3.88263 18.8086 3.76805C19.0753 3.65346 19.3621 3.59314 19.6524 3.59061C19.9427 3.58807 20.2305 3.64338 20.4992 3.75329C20.7679 3.86321 21.012 4.02553 21.2172 4.23079C21.4225 4.43605 21.5848 4.68013 21.6947 4.9488C21.8046 5.21746 21.8599 5.50533 21.8574 5.7956C21.8549 6.08587 21.7945 6.37273 21.68 6.63943C21.5654 6.90614 21.3988 7.14735 21.19 7.349L21.124 7.415C20.872 7.67232 20.703 7.99932 20.6388 8.35373C20.5746 8.70814 20.6182 9.07365 20.764 9.403V9.49C20.9023 9.81329 21.1323 10.089 21.4255 10.283C21.7187 10.4771 22.0624 10.581 22.414 10.582H22.6C22.8908 10.5758 23.1799 10.6277 23.4504 10.7347C23.7209 10.8417 23.9673 11.0016 24.1752 11.205C24.383 11.4085 24.5482 11.6514 24.6609 11.9196C24.7737 12.1877 24.8317 12.4756 24.8317 12.7665C24.8317 13.0574 24.7737 13.3453 24.6609 13.6134C24.5482 13.8816 24.383 14.1245 24.1752 14.328C23.9673 14.5314 23.7209 14.6913 23.4504 14.7983C23.1799 14.9053 22.8908 14.9572 22.6 14.951H22.5C22.1485 14.9522 21.8051 15.0562 21.5121 15.2502C21.219 15.4443 20.9892 15.7199 20.851 16.043L20.85 16.044Z"
                          stroke="#000"
                          strokeWidth="1.5"
                          strokeLinecap="round"
                          strokeLinejoin="round"
                        />
                      </svg>