<svg width="25" height="26" viewBox="0 0 25 26" fill="none" xmlns="http://www.w3.org/2000/svg">
<path d="M11.9792 4.66732C11.0123 4.66732 10.0849 5.05143 9.40121 5.73516C8.71749 6.41888 8.33337 7.34622 8.33337 8.31315C8.33337 9.28009 8.71749 10.2074 9.40121 10.8911C10.0849 11.5749 11.0123 11.959 11.9792 11.959C12.9461 11.959 13.8735 11.5749 14.5572 10.8911C15.2409 10.2074 15.625 9.28009 15.625 8.31315C15.625 7.34622 15.2409 6.41888 14.5572 5.73516C13.8735 5.05143 12.9461 4.66732 11.9792 4.66732ZM6.25004 8.31315C6.25004 6.79368 6.85365 5.33645 7.92807 4.26202C9.0025 3.18759 10.4597 2.58398 11.9792 2.58398C13.4987 2.58398 14.9559 3.18759 16.0303 4.26202C17.1048 5.33645 17.7084 6.79368 17.7084 8.31315C17.7084 9.83262 17.1048 11.2899 16.0303 12.3643C14.9559 13.4387 13.4987 14.0423 11.9792 14.0423C10.4597 14.0423 9.0025 13.4387 7.92807 12.3643C6.85365 11.2899 6.25004 9.83262 6.25004 8.31315ZM19.7917 14.0423V18.209H23.9584V20.2923H19.7917V24.459H17.7084V20.2923H13.5417V18.209H17.7084V14.0423H19.7917ZM8.33337 17.1673C7.2283 17.1673 6.1685 17.6063 5.3871 18.3877C4.60569 19.1691 4.16671 20.2289 4.16671 21.334H12.5521V23.4173H2.08337V21.334C2.08337 19.6764 2.74185 18.0867 3.91396 16.9146C5.08606 15.7425 6.67577 15.084 8.33337 15.084H12.5V17.1673H8.33337Z" fill="#595959"/>
</svg>
