<svg width="26" height="26" viewBox="0 0 26 26" fill="none" xmlns="http://www.w3.org/2000/svg">
<path d="M12.7083 22.3743C13.9395 22.3743 15.1586 22.1319 16.296 21.6607C17.4334 21.1896 18.4669 20.499 19.3375 19.6285C20.208 18.7579 20.8986 17.7244 21.3697 16.587C21.8408 15.4496 22.0833 14.2305 22.0833 12.9993C22.0833 11.7682 21.8408 10.5491 21.3697 9.41169C20.8986 8.27426 20.208 7.24077 19.3375 6.37022C18.4669 5.49967 17.4334 4.80912 16.296 4.33798C15.1586 3.86684 13.9395 3.62435 12.7083 3.62435C10.2219 3.62435 7.83736 4.61207 6.07921 6.37022C4.32105 8.12838 3.33333 10.5129 3.33333 12.9993C3.33333 15.4858 4.32105 17.8703 6.07921 19.6285C7.83736 21.3866 10.2219 22.3743 12.7083 22.3743ZM24.1667 12.9993C24.1667 19.3275 19.0365 24.4577 12.7083 24.4577C6.38021 24.4577 1.25 19.3275 1.25 12.9993C1.25 6.67122 6.38021 1.54102 12.7083 1.54102C19.0365 1.54102 24.1667 6.67122 24.1667 12.9993ZM15.8333 17.5973L11.6667 13.4306V6.22852H13.75V12.5681L17.3062 16.1243L15.8333 17.5973Z" fill="#595959"/>
</svg>
