<svg
                          width="23"
                          height="23"
                          viewBox="0 0 23 23"
                          fill="none"
                          xmlns="http://www.w3.org/2000/svg"
                        >
                          <g clipPath="url(#clip0)">
                            <path
                              d="M3.28045e-06 21.4119C-0.000528529 21.5749 0.0636198 21.7313 0.178364 21.847C0.293108 21.9627 0.449068 22.0281 0.612003 22.0289H9.158C9.23907 22.0291 9.31936 22.0132 9.39427 21.9822C9.46919 21.9512 9.53726 21.9058 9.59458 21.8485C9.6519 21.7912 9.69735 21.7231 9.72831 21.6482C9.75927 21.5733 9.77514 21.493 9.775 21.4119V12.8709C9.77514 12.7898 9.75927 12.7096 9.72831 12.6346C9.69735 12.5597 9.6519 12.4916 9.59458 12.4343C9.53726 12.377 9.46919 12.3316 9.39427 12.3006C9.31936 12.2697 9.23907 12.2538 9.158 12.2539H0.617003C0.536212 12.2539 0.456219 12.2699 0.38164 12.301C0.307061 12.332 0.239372 12.3776 0.182477 12.4349C0.125581 12.4923 0.0806063 12.5604 0.0501461 12.6352C0.0196858 12.71 0.00434322 12.7901 0.00500328 12.8709V21.4119H3.28045e-06ZM1.229 13.4829H8.55V20.7999H1.229V13.4829Z"
                              fill="#000"
                            />
                            <path
                              d="M12.252 21.4119C12.2514 21.5749 12.3156 21.7313 12.4303 21.847C12.5451 21.9627 12.701 22.0281 12.864 22.0289H21.41C21.491 22.0291 21.5713 22.0132 21.6462 21.9822C21.7211 21.9512 21.7892 21.9058 21.8465 21.8485C21.9039 21.7912 21.9493 21.7231 21.9803 21.6482C22.0112 21.5733 22.0271 21.493 22.027 21.4119V12.8709C22.0271 12.7898 22.0112 12.7096 21.9803 12.6346C21.9493 12.5597 21.9039 12.4916 21.8465 12.4343C21.7892 12.377 21.7211 12.3316 21.6462 12.3006C21.5713 12.2697 21.491 12.2538 21.41 12.2539H12.869C12.7882 12.2539 12.7082 12.2699 12.6336 12.301C12.559 12.332 12.4913 12.3776 12.4344 12.4349C12.3775 12.4923 12.3326 12.5604 12.3021 12.6352C12.2716 12.71 12.2563 12.7901 12.257 12.8709V21.4119H12.252ZM13.481 13.4829H20.802V20.7999H13.481V13.4829Z"
                              fill="#000"
                            />
                            <path
                              d="M3.28045e-06 9.15802C-0.000528529 9.32096 0.0636198 9.47743 0.178364 9.59311C0.293108 9.70879 0.449068 9.77423 0.612003 9.77503H9.158C9.23907 9.77516 9.31936 9.75926 9.39427 9.7283C9.46919 9.69734 9.53726 9.65193 9.59458 9.59461C9.6519 9.53729 9.69735 9.46921 9.72831 9.39429C9.75927 9.31937 9.77514 9.23908 9.775 9.15802V0.617005C9.77514 0.535943 9.75927 0.455655 9.72831 0.380738C9.69735 0.305821 9.6519 0.237741 9.59458 0.180421C9.53726 0.123101 9.46919 0.0776837 9.39427 0.0467232C9.31936 0.0157627 9.23907 -0.00013089 9.158 8.11852e-07H0.617003C0.536212 -1.88452e-06 0.456219 0.0159908 0.38164 0.0470589C0.307061 0.078127 0.239372 0.123671 0.182477 0.181031C0.125581 0.238391 0.0806063 0.306458 0.0501461 0.381287C0.0196858 0.456117 0.00434322 0.536216 0.00500328 0.617005V9.15802H3.28045e-06ZM1.229 1.229H8.55V8.54602H1.229V1.229Z"
                              fill="#000"
                            />
                            <path
                              d="M12.252 9.15802C12.2514 9.32096 12.3156 9.47743 12.4303 9.59311C12.5451 9.70879 12.701 9.77423 12.864 9.77503H21.41C21.491 9.77516 21.5713 9.75926 21.6462 9.7283C21.7211 9.69734 21.7892 9.65193 21.8465 9.59461C21.9039 9.53729 21.9493 9.46921 21.9803 9.39429C22.0112 9.31937 22.0271 9.23908 22.027 9.15802V0.617005C22.0271 0.535943 22.0112 0.455655 21.9803 0.380738C21.9493 0.305821 21.9039 0.237741 21.8465 0.180421C21.7892 0.123101 21.7211 0.0776837 21.6462 0.0467232C21.5713 0.0157627 21.491 -0.00013089 21.41 8.11852e-07H12.869C12.7882 -1.88452e-06 12.7082 0.0159908 12.6336 0.0470589C12.559 0.078127 12.4913 0.123671 12.4344 0.181031C12.3775 0.238391 12.3326 0.306458 12.3021 0.381287C12.2716 0.456117 12.2563 0.536216 12.257 0.617005V9.15802H12.252ZM13.481 1.229H20.802V8.54602H13.481V1.229Z"
                              fill="#000"
                            />
                          </g>
                          <defs>
                            <clipPath id="clip0">
                              <rect
                                width="22.026"
                                height="22.027"
                                fill="#595959"
                              />
                            </clipPath>
                          </defs>
                        </svg>