<svg width="25" height="25" viewBox="0 0 25 25" fill="none" xmlns="http://www.w3.org/2000/svg">
<path d="M17.7083 16.2399L15.6249 14.1566L8.76033 7.29202L6.677 5.20869L4.90617 3.42744C4.80905 3.33032 4.69374 3.25327 4.56684 3.20071C4.43995 3.14815 4.30394 3.12109 4.16659 3.12109C4.02923 3.12109 3.89322 3.14815 3.76633 3.20071C3.63943 3.25327 3.52413 3.33032 3.427 3.42744C3.23085 3.62359 3.12066 3.88963 3.12066 4.16702C3.12066 4.44442 3.23085 4.71046 3.427 4.90661L3.9895 5.45869L5.82284 7.29202L15.552 17.0212L17.0728 18.542L20.0937 21.5733C20.1905 21.6709 20.3057 21.7484 20.4326 21.8013C20.5596 21.8542 20.6957 21.8814 20.8333 21.8814C20.9708 21.8814 21.1069 21.8542 21.2339 21.8013C21.3608 21.7484 21.476 21.6709 21.5728 21.5733C21.6705 21.4764 21.748 21.3612 21.8008 21.2343C21.8537 21.1074 21.881 20.9712 21.881 20.8337C21.881 20.6962 21.8537 20.56 21.8008 20.4331C21.748 20.3062 21.6705 20.1909 21.5728 20.0941L17.7083 16.2399ZM14.5833 17.7087H5.20825C4.93198 17.7087 4.66703 17.5989 4.47168 17.4036C4.27633 17.2082 4.16659 16.9433 4.16659 16.667V8.33369C4.16977 8.17551 4.20895 8.02013 4.28115 7.87935C4.35334 7.73857 4.45666 7.61608 4.58325 7.52119L3.12492 6.04202C2.80188 6.3309 2.54246 6.68381 2.36313 7.07833C2.1838 7.47285 2.08849 7.90036 2.08325 8.33369V16.667C2.08325 17.4958 2.41249 18.2907 2.99854 18.8767C3.58459 19.4628 4.37945 19.792 5.20825 19.792H14.5833C15.2 19.7931 15.8027 19.6079 16.3124 19.2608L14.7291 17.7087C14.6806 17.7136 14.6317 17.7136 14.5833 17.7087ZM21.8749 7.44827C21.5584 7.30577 21.207 7.25942 20.8644 7.31498C20.5218 7.37054 20.2031 7.52556 19.9478 7.76077L17.7083 9.84411V8.33369C17.7083 7.50489 17.379 6.71003 16.793 6.12398C16.2069 5.53793 15.4121 5.20869 14.5833 5.20869H8.15617L10.2395 7.29202H14.5833C14.8595 7.29202 15.1245 7.40177 15.3198 7.59712C15.5152 7.79247 15.6249 8.05742 15.6249 8.33369V12.6774L20.5416 17.5941C20.7415 17.669 20.9531 17.7078 21.1666 17.7087C21.4145 17.7081 21.6595 17.6549 21.8853 17.5524C22.1926 17.4282 22.4558 17.2151 22.6413 16.9405C22.8269 16.6659 22.9263 16.3422 22.927 16.0108V8.98994C22.9255 8.65732 22.8245 8.33276 22.637 8.05802C22.4495 7.78328 22.1841 7.57092 21.8749 7.44827ZM20.8333 15.2087L17.9062 12.5004L20.8333 9.79202V15.2087Z" fill="white"/>
</svg>
