<svg width="25" height="25" viewBox="0 0 25 25" fill="none" xmlns="http://www.w3.org/2000/svg">
<path d="M17.7083 12.5V8.33333C17.7083 7.7808 17.4888 7.25089 17.0981 6.86019C16.7074 6.46949 16.1775 6.25 15.625 6.25H5.20833C4.6558 6.25 4.12589 6.46949 3.73519 6.86019C3.34449 7.25089 3.125 7.7808 3.125 8.33333V16.6667C3.125 17.2192 3.34449 17.7491 3.73519 18.1398C4.12589 18.5305 4.6558 18.75 5.20833 18.75H15.625C16.1775 18.75 16.7074 18.5305 17.0981 18.1398C17.4888 17.7491 17.7083 17.2192 17.7083 16.6667V12.5ZM17.7083 12.5L21.875 8.33333V16.6667L17.7083 12.5Z" stroke="#000" stroke-width="2.08333" stroke-linecap="round" stroke-linejoin="round"/>
</svg>
