<svg width="25" height="25" viewBox="0 0 25 25" fill="none" xmlns="http://www.w3.org/2000/svg">
<g clip-path="url(#clip0_531_2360)">
<path fill-rule="evenodd" clip-rule="evenodd" d="M12.5002 3.125C12.7764 3.125 13.0414 3.23475 13.2367 3.4301C13.4321 3.62545 13.5418 3.8904 13.5418 4.16667V5.20833H21.8752C22.1514 5.20833 22.4164 5.31808 22.6117 5.51343C22.8071 5.70878 22.9168 5.97373 22.9168 6.25C22.9168 6.52627 22.8071 6.79122 22.6117 6.98657C22.4164 7.18192 22.1514 7.29167 21.8752 7.29167V16.6667C22.1514 16.6667 22.4164 16.7764 22.6117 16.9718C22.8071 17.1671 22.9168 17.4321 22.9168 17.7083C22.9168 17.9846 22.8071 18.2496 22.6117 18.4449C22.4164 18.6403 22.1514 18.75 21.8752 18.75H17.0981L18.445 20.0969C18.6347 20.2933 18.7397 20.5565 18.7373 20.8296C18.735 21.1027 18.6254 21.364 18.4323 21.5571C18.2391 21.7502 17.9779 21.8598 17.7047 21.8622C17.4316 21.8645 17.1685 21.7595 16.972 21.5698L14.1522 18.75H10.8481L8.02829 21.5698C7.83183 21.7595 7.5687 21.8645 7.29558 21.8622C7.02246 21.8598 6.76119 21.7502 6.56806 21.5571C6.37493 21.364 6.26538 21.1027 6.263 20.8296C6.26063 20.5565 6.36562 20.2933 6.55537 20.0969L7.90225 18.75H3.12516C2.8489 18.75 2.58394 18.6403 2.38859 18.4449C2.19324 18.2496 2.0835 17.9846 2.0835 17.7083C2.0835 17.4321 2.19324 17.1671 2.38859 16.9718C2.58394 16.7764 2.8489 16.6667 3.12516 16.6667V7.29167C2.8489 7.29167 2.58394 7.18192 2.38859 6.98657C2.19324 6.79122 2.0835 6.52627 2.0835 6.25C2.0835 5.97373 2.19324 5.70878 2.38859 5.51343C2.58394 5.31808 2.8489 5.20833 3.12516 5.20833H11.4585V4.16667C11.4585 3.8904 11.5682 3.62545 11.7636 3.4301C11.9589 3.23475 12.2239 3.125 12.5002 3.125ZM19.7918 16.6667V7.29167H5.2085V16.6667H19.7918Z" fill="#000"/>
</g>
<defs>
<clipPath id="clip0_531_2360">
<rect width="25" height="25" fill="#000"/>
</clipPath>
</defs>
</svg>
